<svg width="17" height="21" viewBox="0 0 17 21" fill="none" xmlns="http://www.w3.org/2000/svg">
<path fill-rule="evenodd" clip-rule="evenodd" d="M3.85565 5.12195H2.55408C2.12049 5.12197 1.703 5.29376 1.38569 5.60272C1.06838 5.91169 0.874817 6.33489 0.84397 6.7871L0.00434451 19.0798C-0.0124043 19.3253 0.0193882 19.5718 0.0977413 19.8039C0.176094 20.0361 0.299329 20.2488 0.459765 20.429C0.620202 20.6091 0.814403 20.7528 1.03027 20.851C1.24613 20.9493 1.47903 21 1.71446 21H15.2856C15.521 20.9998 15.7538 20.949 15.9696 20.8507C16.1854 20.7525 16.3796 20.6088 16.54 20.4287C16.7004 20.2485 16.8236 20.0358 16.902 19.8038C16.9804 19.5717 17.0123 19.3253 16.9957 19.0798L16.1561 6.7871C16.1253 6.33489 15.9317 5.91169 15.6144 5.60272C15.2971 5.29376 14.8796 5.12197 14.446 5.12195H13.1537V4.86585C13.1537 3.57535 12.6634 2.3377 11.7907 1.42518C10.918 0.512651 9.73427 0 8.50004 0C6.02378 0 3.73514 2.0621 3.84634 4.86585L3.85565 5.12195ZM13.1537 6.65854V10.5C13.1537 10.7038 13.0763 10.8992 12.9385 11.0433C12.8007 11.1873 12.6138 11.2683 12.4189 11.2683C12.2241 11.2683 12.0372 11.1873 11.8994 11.0433C11.7616 10.8992 11.6841 10.7038 11.6841 10.5V6.65854H5.31593V10.5C5.31593 10.7038 5.23851 10.8992 5.10071 11.0433C4.96291 11.1873 4.77601 11.2683 4.58113 11.2683C4.38625 11.2683 4.19936 11.1873 4.06155 11.0433C3.92375 10.8992 3.84634 10.7038 3.84634 10.5C3.84634 10.5 3.91002 8.70476 3.88896 6.65854H2.55408C2.49223 6.65863 2.43271 6.68318 2.38746 6.72726C2.34221 6.77134 2.31458 6.8317 2.31013 6.8962L1.47001 19.1889C1.46759 19.224 1.47211 19.2592 1.4833 19.2924C1.49449 19.3256 1.5121 19.3561 1.53504 19.3818C1.55798 19.4076 1.58575 19.4281 1.61662 19.4422C1.64749 19.4562 1.68079 19.4634 1.71446 19.4634H15.2856C15.3192 19.4633 15.3525 19.4559 15.3833 19.4419C15.4141 19.4278 15.4418 19.4072 15.4647 19.3815C15.4876 19.3558 15.5052 19.3254 15.5165 19.2923C15.5277 19.2591 15.5323 19.224 15.5301 19.1889L14.6899 6.8962C14.6855 6.8317 14.6579 6.77134 14.6126 6.72726C14.5674 6.68318 14.5078 6.65863 14.446 6.65854H13.1537ZM11.6841 5.12195V4.86585C11.6841 3.98288 11.3487 3.13606 10.7515 2.51171C10.1544 1.88735 9.34451 1.53659 8.50004 1.53659C7.65556 1.53659 6.84567 1.88735 6.24853 2.51171C5.6514 3.13606 5.31593 3.98288 5.31593 4.86585V5.12195H11.6841Z" fill="currentColor"/>
</svg>
